<mxfile host="app.diagrams.net" agent="Mozilla/5.0 (Windows NT 10.0; Win64; x64; rv:137.0) Gecko/20100101 Firefox/137.0" version="26.2.9">
  <diagram name="Page-1" id="YMZhdLe852Epkewxx5oT">
    <mxGraphModel dx="1182" dy="662" grid="1" gridSize="10" guides="1" tooltips="1" connect="1" arrows="1" fold="1" page="1" pageScale="1" pageWidth="827" pageHeight="1169" math="0" shadow="0">
      <root>
        <mxCell id="0" />
        <mxCell id="1" parent="0" />
        <mxCell id="EqeqThMZiw6z70HsxL93-7" style="edgeStyle=orthogonalEdgeStyle;rounded=0;orthogonalLoop=1;jettySize=auto;html=1;entryX=-0.012;entryY=0.66;entryDx=0;entryDy=0;entryPerimeter=0;" edge="1" parent="1" source="EqeqThMZiw6z70HsxL93-1" target="EqeqThMZiw6z70HsxL93-6">
          <mxGeometry relative="1" as="geometry" />
        </mxCell>
        <mxCell id="EqeqThMZiw6z70HsxL93-9" value="User clicks on &#39;find bulbs&#39; button" style="edgeLabel;html=1;align=center;verticalAlign=middle;resizable=0;points=[];" vertex="1" connectable="0" parent="EqeqThMZiw6z70HsxL93-7">
          <mxGeometry x="0.0829" y="-2" relative="1" as="geometry">
            <mxPoint x="-19" y="-11" as="offset" />
          </mxGeometry>
        </mxCell>
        <mxCell id="EqeqThMZiw6z70HsxL93-1" value="User" style="shape=umlActor;verticalLabelPosition=bottom;verticalAlign=top;html=1;outlineConnect=0;" vertex="1" parent="1">
          <mxGeometry x="80" y="80" width="40" height="80" as="geometry" />
        </mxCell>
        <mxCell id="EqeqThMZiw6z70HsxL93-4" value="&lt;div&gt;Bulb&amp;nbsp;&lt;/div&gt;&lt;div&gt;(already connected to network)&lt;/div&gt;" style="html=1;verticalLabelPosition=bottom;align=center;labelBackgroundColor=#ffffff;verticalAlign=top;strokeWidth=2;strokeColor=#0080F0;shadow=0;dashed=0;shape=mxgraph.ios7.icons.lightbulb;" vertex="1" parent="1">
          <mxGeometry x="40" y="240" width="120" height="120" as="geometry" />
        </mxCell>
        <mxCell id="EqeqThMZiw6z70HsxL93-22" style="edgeStyle=orthogonalEdgeStyle;rounded=0;orthogonalLoop=1;jettySize=auto;html=1;" edge="1" parent="1">
          <mxGeometry relative="1" as="geometry">
            <mxPoint x="130" y="90" as="targetPoint" />
            <mxPoint x="320" y="90" as="sourcePoint" />
          </mxGeometry>
        </mxCell>
        <mxCell id="EqeqThMZiw6z70HsxL93-23" value="&lt;div&gt;Bulb displayed on UI&lt;/div&gt;" style="edgeLabel;html=1;align=center;verticalAlign=middle;resizable=0;points=[];" vertex="1" connectable="0" parent="EqeqThMZiw6z70HsxL93-22">
          <mxGeometry x="-0.0947" y="-1" relative="1" as="geometry">
            <mxPoint y="-9" as="offset" />
          </mxGeometry>
        </mxCell>
        <mxCell id="EqeqThMZiw6z70HsxL93-6" value="UI" style="rounded=0;whiteSpace=wrap;html=1;" vertex="1" parent="1">
          <mxGeometry x="320" y="40" width="120" height="120" as="geometry" />
        </mxCell>
        <mxCell id="EqeqThMZiw6z70HsxL93-13" style="edgeStyle=orthogonalEdgeStyle;rounded=0;orthogonalLoop=1;jettySize=auto;html=1;" edge="1" parent="1" source="EqeqThMZiw6z70HsxL93-10" target="EqeqThMZiw6z70HsxL93-4">
          <mxGeometry relative="1" as="geometry" />
        </mxCell>
        <mxCell id="EqeqThMZiw6z70HsxL93-14" value="UDP &#39;discover&#39; packet" style="edgeLabel;html=1;align=center;verticalAlign=middle;resizable=0;points=[];" vertex="1" connectable="0" parent="EqeqThMZiw6z70HsxL93-13">
          <mxGeometry x="-0.175" y="-1" relative="1" as="geometry">
            <mxPoint y="11" as="offset" />
          </mxGeometry>
        </mxCell>
        <mxCell id="EqeqThMZiw6z70HsxL93-18" style="edgeStyle=orthogonalEdgeStyle;rounded=0;orthogonalLoop=1;jettySize=auto;html=1;entryX=0.5;entryY=0;entryDx=0;entryDy=0;" edge="1" parent="1" source="EqeqThMZiw6z70HsxL93-10" target="EqeqThMZiw6z70HsxL93-17">
          <mxGeometry relative="1" as="geometry" />
        </mxCell>
        <mxCell id="EqeqThMZiw6z70HsxL93-19" value="Save bulb in db" style="edgeLabel;html=1;align=center;verticalAlign=middle;resizable=0;points=[];" vertex="1" connectable="0" parent="EqeqThMZiw6z70HsxL93-18">
          <mxGeometry x="0.1071" relative="1" as="geometry">
            <mxPoint as="offset" />
          </mxGeometry>
        </mxCell>
        <mxCell id="EqeqThMZiw6z70HsxL93-10" value="Backend" style="rounded=0;whiteSpace=wrap;html=1;" vertex="1" parent="1">
          <mxGeometry x="320" y="240" width="120" height="120" as="geometry" />
        </mxCell>
        <mxCell id="EqeqThMZiw6z70HsxL93-11" style="edgeStyle=orthogonalEdgeStyle;rounded=0;orthogonalLoop=1;jettySize=auto;html=1;" edge="1" parent="1" source="EqeqThMZiw6z70HsxL93-6">
          <mxGeometry relative="1" as="geometry">
            <mxPoint x="360" y="240" as="targetPoint" />
            <Array as="points">
              <mxPoint x="360" y="210" />
              <mxPoint x="360" y="210" />
            </Array>
          </mxGeometry>
        </mxCell>
        <mxCell id="EqeqThMZiw6z70HsxL93-12" value="&lt;div&gt;Button GET&amp;nbsp;&lt;/div&gt;&lt;div&gt;request &#39;/discover/&#39;&lt;/div&gt;" style="edgeLabel;html=1;align=center;verticalAlign=middle;resizable=0;points=[];" vertex="1" connectable="0" parent="EqeqThMZiw6z70HsxL93-11">
          <mxGeometry x="-0.198" y="3" relative="1" as="geometry">
            <mxPoint x="-33" as="offset" />
          </mxGeometry>
        </mxCell>
        <mxCell id="EqeqThMZiw6z70HsxL93-15" style="edgeStyle=orthogonalEdgeStyle;rounded=0;orthogonalLoop=1;jettySize=auto;html=1;entryX=-0.002;entryY=0.417;entryDx=0;entryDy=0;entryPerimeter=0;" edge="1" parent="1" source="EqeqThMZiw6z70HsxL93-4" target="EqeqThMZiw6z70HsxL93-10">
          <mxGeometry relative="1" as="geometry">
            <Array as="points">
              <mxPoint x="200" y="290" />
              <mxPoint x="200" y="290" />
            </Array>
          </mxGeometry>
        </mxCell>
        <mxCell id="EqeqThMZiw6z70HsxL93-16" value="UDP bulb response" style="edgeLabel;html=1;align=center;verticalAlign=middle;resizable=0;points=[];" vertex="1" connectable="0" parent="EqeqThMZiw6z70HsxL93-15">
          <mxGeometry x="0.0838" y="-1" relative="1" as="geometry">
            <mxPoint y="-11" as="offset" />
          </mxGeometry>
        </mxCell>
        <mxCell id="EqeqThMZiw6z70HsxL93-17" value="DB" style="rounded=0;whiteSpace=wrap;html=1;" vertex="1" parent="1">
          <mxGeometry x="320" y="440" width="120" height="120" as="geometry" />
        </mxCell>
        <mxCell id="EqeqThMZiw6z70HsxL93-20" style="edgeStyle=orthogonalEdgeStyle;rounded=0;orthogonalLoop=1;jettySize=auto;html=1;" edge="1" parent="1" source="EqeqThMZiw6z70HsxL93-10">
          <mxGeometry relative="1" as="geometry">
            <mxPoint x="420" y="160" as="targetPoint" />
            <Array as="points">
              <mxPoint x="420" y="160" />
            </Array>
          </mxGeometry>
        </mxCell>
        <mxCell id="EqeqThMZiw6z70HsxL93-21" value="&lt;div&gt;Bulb added to&lt;/div&gt;&lt;div&gt;django template context&lt;/div&gt;" style="edgeLabel;html=1;align=center;verticalAlign=middle;resizable=0;points=[];" vertex="1" connectable="0" parent="EqeqThMZiw6z70HsxL93-20">
          <mxGeometry x="-0.2357" y="2" relative="1" as="geometry">
            <mxPoint x="32" as="offset" />
          </mxGeometry>
        </mxCell>
      </root>
    </mxGraphModel>
  </diagram>
</mxfile>
